# xmcd
#
# Track frame offsets:
#	182
#	24400
#	57405
#	76610
#	96612
#	111987
#	136185
#	151880
#	172702
#	185480
#	206405
#
# Disc length: 3028 seconds
#
# Revision: 0
# Processed by: cddbd v1.5.1PL0 Copyright (c) Steve Scherf et al.
# Submitted via: dBpowerAMP V4.0
#
DISCID=850bd20b
DTITLE=Various Artist - Sanctified
DYEAR=1992
DGENRE=Gospel
TTITLE0=Sign My Name (Dimensions Of Faith)
TTITLE1=Soon I Will Be Done (Marva Wright)
TTITLE2=Ride On King Jesus (Val and Love Alive)
TTITLE3=Do You Know Him (Johnny Adams)
TTITLE4=By And By (Joe 'Cool' Davis)
TTITLE5=Just A Closer Walk With Thee (Marva Wright)
TTITLE6=Oh Lord We Praise You (Val and Love Alive)
TTITLE7=Blessed Assurance (Johnny Adams)
TTITLE8=Come By Here (Avondale Community Singers)
TTITLE9=He Keeps Making A Way For Me (Dimensions Of Faith)
TTITLE10=Wait Till The Morning Comes (New Zion Trio +1)
EXTD=
EXTT0=
EXTT1=
EXTT2=
EXTT3=
EXTT4=
EXTT5=
EXTT6=
EXTT7=
EXTT8=
EXTT9=
EXTT10=
PLAYORDER=
